<svg xmlns="http://www.w3.org/2000/svg" xmlns:xlink="http://www.w3.org/1999/xlink" version="1.1" id="Слой_1" x="0px" y="0px" viewBox="0 0 162.5 82" style="enable-background:new 0 0 162.5 82;" xml:space="preserve"> <style type="text/css"> .st0{fill:url(#SVGID_1_);} .st1{fill:url(#SVGID_00000169532437099162302500000003071129312717288337_);} .st2{fill:url(#SVGID_00000036968255041060987170000004431278560248568207_);} .st3{fill:url(#SVGID_00000010285671853021626320000008126934691451524998_);} .st4{fill:url(#SVGID_00000027585181245727690230000002939937788960740514_);} .st5{fill:url(#SVGID_00000043452270271990974480000004062099249799372206_);} .st6{fill:#4B6E9A;} .st7{fill:url(#SVGID_00000028321173492038609410000002281787560733584292_);stroke:#4B6E9A;stroke-width:0.3769;stroke-miterlimit:10;} </style> <g> <g> <g> </g> </g> <g> <g> </g> </g> <g> <g> <linearGradient id="SVGID_1_" gradientUnits="userSpaceOnUse" x1="2.9203" y1="39.2674" x2="105.6097" y2="39.2674"> <stop offset="0.4238" style="stop-color:#4B555B"/> <stop offset="0.4343" style="stop-color:#5C656B"/> <stop offset="0.4551" style="stop-color:#888F93"/> <stop offset="0.4839" style="stop-color:#CFD2D4"/> <stop offset="0.5019" style="stop-color:#FFFFFF"/> </linearGradient> <path class="st0" d="M6.2,46.8c-0.2,0-0.4-0.1-0.5-0.2c-0.1-0.1-0.2-0.3-0.2-0.5V28c0-0.2,0.1-0.4,0.2-0.5 c0.1-0.1,0.3-0.2,0.5-0.2h5.1c1.2,0,2.3,0.3,3.3,0.8c1,0.5,1.7,1.3,2.2,2.2c0.5,0.9,0.8,2,0.8,3.2c0,1.2-0.3,2.3-0.8,3.2 c-0.5,0.9-1.3,1.7-2.2,2.2c-1,0.5-2,0.8-3.3,0.8H7V46c0,0.2-0.1,0.4-0.2,0.5C6.6,46.7,6.4,46.8,6.2,46.8z M7,38.3h4.3 c0.9,0,1.8-0.2,2.5-0.6c0.7-0.4,1.3-1,1.7-1.7c0.4-0.7,0.6-1.5,0.6-2.5c0-0.9-0.2-1.8-0.6-2.5c-0.4-0.7-1-1.3-1.7-1.7 c-0.7-0.4-1.5-0.6-2.5-0.6H7V38.3z"/> <linearGradient id="SVGID_00000166649834610116951040000006310813982807063981_" gradientUnits="userSpaceOnUse" x1="2.9203" y1="39.2674" x2="105.6097" y2="39.2674"> <stop offset="0.4238" style="stop-color:#4B555B"/> <stop offset="0.4343" style="stop-color:#5C656B"/> <stop offset="0.4551" style="stop-color:#888F93"/> <stop offset="0.4839" style="stop-color:#CFD2D4"/> <stop offset="0.5019" style="stop-color:#FFFFFF"/> </linearGradient> <path style="fill:url(#SVGID_00000166649834610116951040000006310813982807063981_);" d="M21.3,46.8c-0.2,0-0.4-0.1-0.5-0.2 c-0.1-0.1-0.2-0.3-0.2-0.5V33.9c0-0.2,0.1-0.4,0.2-0.5c0.1-0.1,0.3-0.2,0.5-0.2c0.2,0,0.4,0.1,0.6,0.2c0.1,0.1,0.2,0.3,0.2,0.5 V46c0,0.2-0.1,0.4-0.2,0.5C21.7,46.7,21.5,46.8,21.3,46.8z M21,38.4c0.1-1.1,0.4-2,0.9-2.8c0.5-0.8,1.1-1.5,1.9-1.9 c0.8-0.5,1.6-0.7,2.6-0.7c0.6,0,1.1,0.1,1.5,0.2s0.5,0.4,0.4,0.8c-0.1,0.2-0.2,0.4-0.4,0.4c-0.2,0.1-0.4,0.1-0.7,0 c-0.3,0-0.6-0.1-0.9-0.1c-0.8,0-1.6,0.2-2.3,0.5c-0.7,0.3-1.2,0.8-1.5,1.4C22.2,37,22,37.7,22,38.4H21z"/> <linearGradient id="SVGID_00000153683528700513911230000003713139282028120975_" gradientUnits="userSpaceOnUse" x1="2.9203" y1="39.2674" x2="105.6097" y2="39.2674"> <stop offset="0.4238" style="stop-color:#4B555B"/> <stop offset="0.4343" style="stop-color:#5C656B"/> <stop offset="0.4551" style="stop-color:#888F93"/> <stop offset="0.4839" style="stop-color:#CFD2D4"/> <stop offset="0.5019" style="stop-color:#FFFFFF"/> </linearGradient> <path style="fill:url(#SVGID_00000153683528700513911230000003713139282028120975_);" d="M37.9,46.9c-1.3,0-2.6-0.3-3.6-0.9 c-1.1-0.6-1.9-1.4-2.5-2.5c-0.6-1.1-0.9-2.2-0.9-3.6c0-1.3,0.3-2.5,0.9-3.6c0.6-1.1,1.5-1.9,2.5-2.5c1.1-0.6,2.3-0.9,3.6-0.9 c1.3,0,2.6,0.3,3.6,0.9c1.1,0.6,1.9,1.4,2.5,2.5c0.6,1.1,0.9,2.3,0.9,3.6c0,1.3-0.3,2.5-0.9,3.6c-0.6,1.1-1.5,1.9-2.5,2.5 C40.5,46.6,39.3,46.9,37.9,46.9z M37.9,45.5c1.1,0,2-0.2,2.8-0.7c0.8-0.5,1.5-1.2,2-2c0.5-0.8,0.7-1.8,0.7-2.9c0-1-0.2-2-0.7-2.8 c-0.5-0.8-1.1-1.5-2-2c-0.8-0.5-1.8-0.7-2.8-0.7c-1,0-2,0.2-2.8,0.7c-0.8,0.5-1.5,1.2-2,2c-0.5,0.8-0.7,1.8-0.7,2.9 c0,1,0.2,2,0.7,2.8c0.5,0.8,1.2,1.5,2,2C35.9,45.3,36.9,45.5,37.9,45.5z"/> <linearGradient id="SVGID_00000087414663208711307610000007021183770123626927_" gradientUnits="userSpaceOnUse" x1="2.9203" y1="39.2674" x2="105.6097" y2="39.2674"> <stop offset="0.4238" style="stop-color:#4B555B"/> <stop offset="0.4343" style="stop-color:#5C656B"/> <stop offset="0.4551" style="stop-color:#888F93"/> <stop offset="0.4839" style="stop-color:#CFD2D4"/> <stop offset="0.5019" style="stop-color:#FFFFFF"/> </linearGradient> <path style="fill:url(#SVGID_00000087414663208711307610000007021183770123626927_);" d="M49.5,46.8c-0.2,0-0.4-0.1-0.5-0.2 c-0.1-0.1-0.2-0.3-0.2-0.5V33.9c0-0.2,0.1-0.4,0.2-0.5c0.1-0.1,0.3-0.2,0.5-0.2c0.2,0,0.4,0.1,0.6,0.2c0.1,0.1,0.2,0.3,0.2,0.5 V46c0,0.2-0.1,0.4-0.2,0.5C49.9,46.7,49.8,46.8,49.5,46.8z M58.7,46.8c-0.2,0-0.4-0.1-0.5-0.2c-0.1-0.1-0.2-0.3-0.2-0.5v-7.2 c0-1.3-0.3-2.3-1-3.1s-1.6-1.2-2.7-1.2c-1.2,0-2.1,0.4-2.9,1.1c-0.7,0.7-1.1,1.7-1.1,2.8H49c0.1-1.1,0.3-2,0.8-2.8 c0.5-0.8,1.1-1.5,1.9-1.9c0.8-0.5,1.6-0.7,2.6-0.7c1,0,1.9,0.2,2.7,0.7c0.8,0.5,1.4,1.2,1.8,2.1c0.4,0.9,0.7,1.9,0.7,3V46 c0,0.2-0.1,0.4-0.2,0.5C59.1,46.7,58.9,46.8,58.7,46.8z M67.8,46.8c-0.2,0-0.4-0.1-0.5-0.2c-0.1-0.1-0.2-0.3-0.2-0.5v-7.2 c0-1.3-0.3-2.3-1-3.1s-1.6-1.2-2.7-1.2c-1.2,0-2.1,0.4-2.8,1.1c-0.7,0.8-1.1,1.8-1.1,3.1h-1.5c0-1.1,0.3-2.1,0.8-3 c0.5-0.8,1.1-1.5,1.9-2c0.8-0.5,1.7-0.7,2.7-0.7c1,0,1.9,0.2,2.7,0.7c0.8,0.5,1.4,1.2,1.8,2.1c0.4,0.9,0.7,1.9,0.7,3V46 c0,0.2-0.1,0.4-0.2,0.5C68.2,46.7,68,46.8,67.8,46.8z"/> <linearGradient id="SVGID_00000078024844468172004280000000863636764444498575_" gradientUnits="userSpaceOnUse" x1="2.9203" y1="39.2674" x2="105.6097" y2="39.2674"> <stop offset="0.4238" style="stop-color:#4B555B"/> <stop offset="0.4343" style="stop-color:#5C656B"/> <stop offset="0.4551" style="stop-color:#888F93"/> <stop offset="0.4839" style="stop-color:#CFD2D4"/> <stop offset="0.5019" style="stop-color:#FFFFFF"/> </linearGradient> <path style="fill:url(#SVGID_00000078024844468172004280000000863636764444498575_);" d="M73.9,46.8c-0.2,0-0.4-0.1-0.5-0.2 c-0.1-0.1-0.2-0.3-0.2-0.5V28c0-0.2,0.1-0.4,0.2-0.5c0.1-0.1,0.3-0.2,0.5-0.2c0.2,0,0.4,0.1,0.5,0.2c0.1,0.1,0.2,0.3,0.2,0.5v18 c0,0.2-0.1,0.4-0.2,0.5C74.3,46.7,74.1,46.8,73.9,46.8z"/> <linearGradient id="SVGID_00000041983574429683191920000008135012795107688371_" gradientUnits="userSpaceOnUse" x1="2.9203" y1="39.2674" x2="105.6097" y2="39.2674"> <stop offset="0.4238" style="stop-color:#4B555B"/> <stop offset="0.4343" style="stop-color:#5C656B"/> <stop offset="0.4551" style="stop-color:#888F93"/> <stop offset="0.4839" style="stop-color:#CFD2D4"/> <stop offset="0.5019" style="stop-color:#FFFFFF"/> </linearGradient> <path style="fill:url(#SVGID_00000041983574429683191920000008135012795107688371_);" d="M78.2,28.6c-0.2,0-0.4-0.1-0.5-0.2 s-0.2-0.3-0.2-0.5s0.1-0.4,0.2-0.5c0.1-0.1,0.3-0.2,0.5-0.2h14.3c0.2,0,0.4,0.1,0.5,0.2c0.1,0.1,0.2,0.3,0.2,0.5 s-0.1,0.4-0.2,0.5s-0.3,0.2-0.5,0.2H78.2z M85.4,46.8c-0.2,0-0.4-0.1-0.5-0.2c-0.1-0.1-0.2-0.3-0.2-0.5V27.3h1.5V46 c0,0.2-0.1,0.4-0.2,0.5C85.8,46.7,85.6,46.8,85.4,46.8z"/> </g> <g> <g> <path class="st6" d="M6.2,46.8c-0.2,0-0.4-0.1-0.5-0.2c-0.1-0.1-0.2-0.3-0.2-0.5V28c0-0.2,0.1-0.4,0.2-0.5 c0.1-0.1,0.3-0.2,0.5-0.2h5.1c1.2,0,2.3,0.3,3.3,0.8c1,0.5,1.7,1.3,2.2,2.2c0.5,0.9,0.8,2,0.8,3.2c0,1.2-0.3,2.3-0.8,3.2 c-0.5,0.9-1.3,1.7-2.2,2.2c-1,0.5-2,0.8-3.3,0.8H7V46c0,0.2-0.1,0.4-0.2,0.5C6.6,46.7,6.4,46.8,6.2,46.8z M7,38.3h4.3 c0.9,0,1.8-0.2,2.5-0.6c0.7-0.4,1.3-1,1.7-1.7c0.4-0.7,0.6-1.5,0.6-2.5c0-0.9-0.2-1.8-0.6-2.5c-0.4-0.7-1-1.3-1.7-1.7 c-0.7-0.4-1.5-0.6-2.5-0.6H7V38.3z"/> <path class="st6" d="M21.3,46.8c-0.2,0-0.4-0.1-0.5-0.2c-0.1-0.1-0.2-0.3-0.2-0.5V33.9c0-0.2,0.1-0.4,0.2-0.5 c0.1-0.1,0.3-0.2,0.5-0.2c0.2,0,0.4,0.1,0.6,0.2c0.1,0.1,0.2,0.3,0.2,0.5V46c0,0.2-0.1,0.4-0.2,0.5 C21.7,46.7,21.5,46.8,21.3,46.8z M21,38.4c0.1-1.1,0.4-2,0.9-2.8c0.5-0.8,1.1-1.5,1.9-1.9c0.8-0.5,1.6-0.7,2.6-0.7 c0.6,0,1.1,0.1,1.5,0.2s0.5,0.4,0.4,0.8c-0.1,0.2-0.2,0.4-0.4,0.4c-0.2,0.1-0.4,0.1-0.7,0c-0.3,0-0.6-0.1-0.9-0.1 c-0.8,0-1.6,0.2-2.3,0.5c-0.7,0.3-1.2,0.8-1.5,1.4C22.2,37,22,37.7,22,38.4H21z"/> <path class="st6" d="M37.9,46.9c-1.3,0-2.6-0.3-3.6-0.9c-1.1-0.6-1.9-1.4-2.5-2.5c-0.6-1.1-0.9-2.2-0.9-3.6 c0-1.3,0.3-2.5,0.9-3.6c0.6-1.1,1.5-1.9,2.5-2.5c1.1-0.6,2.3-0.9,3.6-0.9c1.3,0,2.6,0.3,3.6,0.9c1.1,0.6,1.9,1.4,2.5,2.5 c0.6,1.1,0.9,2.3,0.9,3.6c0,1.3-0.3,2.5-0.9,3.6c-0.6,1.1-1.5,1.9-2.5,2.5C40.5,46.6,39.3,46.9,37.9,46.9z M37.9,45.5 c1.1,0,2-0.2,2.8-0.7c0.8-0.5,1.5-1.2,2-2c0.5-0.8,0.7-1.8,0.7-2.9c0-1-0.2-2-0.7-2.8c-0.5-0.8-1.1-1.5-2-2 c-0.8-0.5-1.8-0.7-2.8-0.7c-1,0-2,0.2-2.8,0.7c-0.8,0.5-1.5,1.2-2,2c-0.5,0.8-0.7,1.8-0.7,2.9c0,1,0.2,2,0.7,2.8 c0.5,0.8,1.2,1.5,2,2C35.9,45.3,36.9,45.5,37.9,45.5z"/> <path class="st6" d="M49.5,46.8c-0.2,0-0.4-0.1-0.5-0.2c-0.1-0.1-0.2-0.3-0.2-0.5V33.9c0-0.2,0.1-0.4,0.2-0.5 c0.1-0.1,0.3-0.2,0.5-0.2c0.2,0,0.4,0.1,0.6,0.2c0.1,0.1,0.2,0.3,0.2,0.5V46c0,0.2-0.1,0.4-0.2,0.5 C49.9,46.7,49.8,46.8,49.5,46.8z M58.7,46.8c-0.2,0-0.4-0.1-0.5-0.2c-0.1-0.1-0.2-0.3-0.2-0.5v-7.2c0-1.3-0.3-2.3-1-3.1 s-1.6-1.2-2.7-1.2c-1.2,0-2.1,0.4-2.9,1.1c-0.7,0.7-1.1,1.7-1.1,2.8H49c0.1-1.1,0.3-2,0.8-2.8c0.5-0.8,1.1-1.5,1.9-1.9 c0.8-0.5,1.6-0.7,2.6-0.7c1,0,1.9,0.2,2.7,0.7c0.8,0.5,1.4,1.2,1.8,2.1c0.4,0.9,0.7,1.9,0.7,3V46c0,0.2-0.1,0.4-0.2,0.5 C59.1,46.7,58.9,46.8,58.7,46.8z M67.8,46.8c-0.2,0-0.4-0.1-0.5-0.2c-0.1-0.1-0.2-0.3-0.2-0.5v-7.2c0-1.3-0.3-2.3-1-3.1 s-1.6-1.2-2.7-1.2c-1.2,0-2.1,0.4-2.8,1.1c-0.7,0.8-1.1,1.8-1.1,3.1h-1.5c0-1.1,0.3-2.1,0.8-3c0.5-0.8,1.1-1.5,1.9-2 c0.8-0.5,1.7-0.7,2.7-0.7c1,0,1.9,0.2,2.7,0.7c0.8,0.5,1.4,1.2,1.8,2.1c0.4,0.9,0.7,1.9,0.7,3V46c0,0.2-0.1,0.4-0.2,0.5 C68.2,46.7,68,46.8,67.8,46.8z"/> <path class="st6" d="M73.9,46.8c-0.2,0-0.4-0.1-0.5-0.2c-0.1-0.1-0.2-0.3-0.2-0.5V28c0-0.2,0.1-0.4,0.2-0.5 c0.1-0.1,0.3-0.2,0.5-0.2c0.2,0,0.4,0.1,0.5,0.2c0.1,0.1,0.2,0.3,0.2,0.5v18c0,0.2-0.1,0.4-0.2,0.5 C74.3,46.7,74.1,46.8,73.9,46.8z"/> <path class="st6" d="M78.2,28.6c-0.2,0-0.4-0.1-0.5-0.2s-0.2-0.3-0.2-0.5s0.1-0.4,0.2-0.5c0.1-0.1,0.3-0.2,0.5-0.2h14.3 c0.2,0,0.4,0.1,0.5,0.2c0.1,0.1,0.2,0.3,0.2,0.5s-0.1,0.4-0.2,0.5s-0.3,0.2-0.5,0.2H78.2z M85.4,46.8c-0.2,0-0.4-0.1-0.5-0.2 c-0.1-0.1-0.2-0.3-0.2-0.5V27.3h1.5V46c0,0.2-0.1,0.4-0.2,0.5C85.8,46.7,85.6,46.8,85.4,46.8z"/> </g> </g> </g> <linearGradient id="SVGID_00000012467442205601586540000012782651198142121100_" gradientUnits="userSpaceOnUse" x1="73.161" y1="41.3492" x2="157.2697" y2="41.3492"> <stop offset="0" style="stop-color:#FFFFFF"/> <stop offset="0.1124" style="stop-color:#F9FAFB"/> <stop offset="0.2692" style="stop-color:#E6EBEF"/> <stop offset="0.4522" style="stop-color:#C9D3DC"/> <stop offset="0.655" style="stop-color:#9FB2C2"/> <stop offset="0.8714" style="stop-color:#6B87A0"/> <stop offset="1" style="stop-color:#486B8A"/> </linearGradient> <path style="fill:url(#SVGID_00000012467442205601586540000012782651198142121100_);stroke:#4B6E9A;stroke-width:0.3769;stroke-miterlimit:10;" d=" M94.9,9.8c-0.2,4-0.4,7-0.4,7.2c0,0.2,0,0.3,0,0.3c0,0.1,0,0.2,0,0.4c0,0.8,0,2.2,0,3.9c0.1,2.4,0.2,3.9,0.6,5.7 c0.3,1.1,0.6,2.5,1.5,4.4c1.1,2.3,2.4,3.9,3.3,4.9c0.9,1,2.3,2.6,4.4,4.2c4.2,3.2,9.1,4.5,11,4.9c4.4,1,6.4,0.5,6.8,1.4 c0.5,1.3-3.6,2.8-11.7,8.7c-1.9,1.4-3.6,2.7-4.4,3.3c-2.5,2-3.7,3.2-7.1,5.7c-13.5,9.9-25.8,13.7-25.7,13.8 c0.2,0.4,14.7-5.6,30-14.3c8.4-4.7,16.8-9.6,15.9-11.8c-0.4-1-2.5-1.5-15.7-0.5c-12,1-28,2.8-28,3.5c0,0.2,5.1-0.9,13.3-0.8 c6.2,0.1,8.5,0.9,14.8,0.5c1.8-0.1,2.1-0.2,8.1-0.9c13.5-1.6,17.6-1.9,23.4-3.9c2.3-0.8,5-2,7.4-4.3c0.9-1,1.6-2.1,3-4.3 c1-1.6,3.9-6.4,6.1-9.9c0.3-0.5,0.8-1.3,1.8-1.9c1.8-1.1,4-0.9,4-1c0-0.2-1.9,0.1-3.4-0.8c-1.1-0.7-0.9-1.3-2.1-2.4 c-0.4-0.3-1.7-1.5-3.9-1.8c-0.6-0.1-2.5-0.3-4.2,0.7c-1.5,0.8-2.1,2-2.3,2.5c-0.9,2,0.2,3.3-0.5,3.7c-1,0.6-3.9-2.2-9.5-5.8 c-0.4-0.3-1.8-1.1-4.6-2.8c-5.6-3.4-7.7-4.6-11.1-6.9c-1.9-1.3-2.9-2.1-4-3.1c-1.1-1-2.4-2.1-3.6-3.8c-1.9-2.6-2.2-4.7-2.3-4.6 c-0.5,0.1,0.4,27.9,15.7,34c3.7,1.5,7.2,1.3,7.4,0.9c0.5-1-17.6-6.5-25.5-15.2c-1.7-1.9-3.2-4-3.2-4C97.4,15.9,95.8,12.4,94.9,9.8z "/> </g> </svg>